<svg width="32" height="32" viewBox="0 0 32 32" fill="none" xmlns="http://www.w3.org/2000/svg">
<rect width="32" height="32" rx="16" fill="#0575E6"/>
<path d="M6.09148 14.64C6.09648 14.72 6.10398 14.82 6.11398 14.94C6.12898 15.055 6.14398 15.1775 6.15898 15.3075C6.17398 15.4325 6.18898 15.5575 6.20398 15.6825C6.22398 15.8075 6.24148 15.9225 6.25648 16.0275C6.31148 15.9175 6.37898 15.7825 6.45898 15.6225C6.53898 15.4625 6.62148 15.31 6.70648 15.165C6.79648 15.015 6.88648 14.89 6.97648 14.79C7.07148 14.685 7.15648 14.6325 7.23148 14.6325C7.31148 14.6325 7.38398 14.6725 7.44898 14.7525C7.51898 14.8275 7.57898 14.92 7.62898 15.03C7.67898 15.14 7.72148 15.2575 7.75648 15.3825C7.79648 15.5075 7.82898 15.6175 7.85398 15.7125C7.87398 15.6475 7.89898 15.575 7.92898 15.495C7.96398 15.41 7.99898 15.325 8.03398 15.24C8.07398 15.15 8.11648 15.0625 8.16148 14.9775C8.21148 14.8925 8.26398 14.8175 8.31898 14.7525C8.38398 14.6825 8.45398 14.6325 8.52898 14.6025C8.60398 14.5675 8.65898 14.55 8.69398 14.55C8.73898 14.55 8.79148 14.565 8.85148 14.595C8.91648 14.62 8.98148 14.655 9.04648 14.7C9.11148 14.745 9.17148 14.8 9.22648 14.865C9.28648 14.925 9.33398 14.9875 9.36898 15.0525C9.43898 15.1875 9.49398 15.335 9.53398 15.495C9.57898 15.655 9.61148 15.8075 9.63148 15.9525C9.65148 16.0975 9.66398 16.2275 9.66898 16.3425C9.67898 16.4525 9.68648 16.53 9.69148 16.575C9.69148 16.64 9.68398 16.69 9.66898 16.725C9.65398 16.755 9.62648 16.78 9.58648 16.8C9.53148 16.825 9.48398 16.835 9.44398 16.83C9.40398 16.82 9.37148 16.8025 9.34648 16.7775C9.32148 16.7525 9.30148 16.725 9.28648 16.695C9.27148 16.66 9.26148 16.63 9.25648 16.605C9.24148 16.49 9.22398 16.3725 9.20398 16.2525C9.18898 16.1325 9.17148 16.0175 9.15148 15.9075C9.13148 15.7925 9.10648 15.6875 9.07648 15.5925C9.05148 15.4925 9.02398 15.405 8.99398 15.33C8.98398 15.31 8.96648 15.285 8.94148 15.255C8.92148 15.22 8.89648 15.1875 8.86648 15.1575C8.84148 15.1275 8.81648 15.1025 8.79148 15.0825C8.76648 15.0625 8.74898 15.05 8.73898 15.045C8.68898 15.045 8.63648 15.0925 8.58148 15.1875C8.52648 15.2775 8.47398 15.3875 8.42398 15.5175C8.37398 15.6475 8.32648 15.785 8.28148 15.93C8.24148 16.07 8.21148 16.19 8.19148 16.29C8.19148 16.42 8.16648 16.5175 8.11648 16.5825C8.06648 16.6425 8.01398 16.6725 7.95898 16.6725C7.90398 16.6725 7.84398 16.6525 7.77898 16.6125C7.71898 16.5675 7.67898 16.5175 7.65898 16.4625C7.62898 16.3825 7.59648 16.2925 7.56148 16.1925C7.52648 16.0925 7.48898 15.99 7.44898 15.885C7.41398 15.78 7.37648 15.6775 7.33648 15.5775C7.30148 15.4775 7.26648 15.3875 7.23148 15.3075C7.16148 15.4025 7.09148 15.5075 7.02148 15.6225C6.95648 15.7375 6.89148 15.855 6.82648 15.975C6.76648 16.095 6.70648 16.215 6.64648 16.335C6.59148 16.45 6.53898 16.5525 6.48898 16.6425C6.45398 16.6975 6.41648 16.7475 6.37648 16.7925C6.33648 16.8325 6.28898 16.8525 6.23398 16.8525C6.19398 16.8525 6.15148 16.835 6.10648 16.8C6.06148 16.76 6.01898 16.7125 5.97898 16.6575C5.93898 16.6025 5.90148 16.54 5.86648 16.47C5.83648 16.4 5.81398 16.33 5.79898 16.26C5.75898 16.045 5.72398 15.81 5.69398 15.555C5.66898 15.295 5.64398 15.0425 5.61898 14.7975C5.61398 14.7125 5.62398 14.635 5.64898 14.565C5.67898 14.49 5.73398 14.44 5.81398 14.415C5.89898 14.4 5.96398 14.4125 6.00898 14.4525C6.05398 14.4925 6.08148 14.555 6.09148 14.64ZM11.5597 14.0025C11.5497 14.0525 11.5147 14.08 11.4547 14.085C11.3947 14.09 11.3447 14.0925 11.3047 14.0925C11.1797 14.0975 11.0497 14.11 10.9147 14.13C10.7847 14.15 10.6472 14.18 10.5022 14.22C10.4422 14.24 10.3772 14.2325 10.3072 14.1975C10.2372 14.1625 10.1947 14.0925 10.1797 13.9875C10.1797 13.9475 10.1947 13.915 10.2247 13.89C10.2547 13.865 10.2897 13.8425 10.3297 13.8225C10.3947 13.7925 10.4722 13.7675 10.5622 13.7475C10.6522 13.7225 10.7422 13.705 10.8322 13.695C10.9272 13.685 11.0172 13.6825 11.1022 13.6875C11.1872 13.6875 11.2572 13.695 11.3122 13.71C11.3922 13.735 11.4547 13.7725 11.4997 13.8225C11.5497 13.8725 11.5697 13.9325 11.5597 14.0025ZM11.3872 16.5C11.4222 16.58 11.4397 16.6675 11.4397 16.7625C11.4447 16.8525 11.4197 16.915 11.3647 16.95C11.2947 16.995 11.2197 16.9925 11.1397 16.9425C11.0597 16.8925 10.9997 16.825 10.9597 16.74C10.9047 16.635 10.8622 16.5075 10.8322 16.3575C10.8022 16.2025 10.7797 16.05 10.7647 15.9C10.7497 15.75 10.7397 15.61 10.7347 15.48C10.7347 15.35 10.7347 15.2525 10.7347 15.1875C10.7397 15.1175 10.7597 15.0525 10.7947 14.9925C10.8297 14.9325 10.8747 14.8975 10.9297 14.8875C11.0197 14.8925 11.0922 14.935 11.1472 15.015C11.2022 15.09 11.2272 15.185 11.2222 15.3C11.2222 15.39 11.2247 15.49 11.2297 15.6C11.2347 15.71 11.2447 15.82 11.2597 15.93C11.2747 16.04 11.2922 16.1475 11.3122 16.2525C11.3322 16.3525 11.3572 16.435 11.3872 16.5ZM12.5961 14.5875C12.6111 14.6625 12.6261 14.7475 12.6411 14.8425C12.6611 14.9325 12.6811 15.0275 12.7011 15.1275C12.7211 15.2225 12.7386 15.32 12.7536 15.42C12.7686 15.52 12.7811 15.615 12.7911 15.705C12.8511 15.575 12.9161 15.4375 12.9861 15.2925C13.0561 15.1475 13.1311 15.015 13.2111 14.895C13.2961 14.77 13.3836 14.6675 13.4736 14.5875C13.5686 14.5075 13.6711 14.4675 13.7811 14.4675C13.9461 14.4675 14.0836 14.5275 14.1936 14.6475C14.3086 14.7675 14.4036 14.9175 14.4786 15.0975C14.5586 15.2725 14.6211 15.4575 14.6661 15.6525C14.7111 15.8475 14.7486 16.02 14.7786 16.17C14.8086 16.305 14.7486 16.405 14.5986 16.47C14.5286 16.505 14.4761 16.51 14.4411 16.485C14.4061 16.46 14.3861 16.435 14.3811 16.41C14.3561 16.35 14.3236 16.245 14.2836 16.095C14.2486 15.945 14.2061 15.7925 14.1561 15.6375C14.1111 15.4825 14.0586 15.3475 13.9986 15.2325C13.9386 15.1175 13.8711 15.065 13.7961 15.075C13.7061 15.08 13.6261 15.1475 13.5561 15.2775C13.4961 15.3825 13.4336 15.5 13.3686 15.63C13.3086 15.755 13.2486 15.885 13.1886 16.02C13.1286 16.15 13.0686 16.2825 13.0086 16.4175C12.9536 16.5475 12.9011 16.6675 12.8511 16.7775C12.8161 16.8125 12.7711 16.8375 12.7161 16.8525C12.6661 16.8625 12.6136 16.8575 12.5586 16.8375C12.5086 16.8225 12.4686 16.7975 12.4386 16.7625C12.4086 16.7275 12.3936 16.6925 12.3936 16.6575C12.3486 16.2675 12.3011 15.9125 12.2511 15.5925C12.2061 15.2725 12.1461 14.945 12.0711 14.61C12.0361 14.495 12.0286 14.405 12.0486 14.34C12.0736 14.27 12.1486 14.2425 12.2736 14.2575C12.4486 14.2875 12.5561 14.3975 12.5961 14.5875ZM16.5548 14.0025C16.5448 14.0525 16.5098 14.08 16.4498 14.085C16.3898 14.09 16.3398 14.0925 16.2998 14.0925C16.1748 14.0975 16.0448 14.11 15.9098 14.13C15.7798 14.15 15.6423 14.18 15.4973 14.22C15.4373 14.24 15.3723 14.2325 15.3023 14.1975C15.2323 14.1625 15.1898 14.0925 15.1748 13.9875C15.1748 13.9475 15.1898 13.915 15.2198 13.89C15.2498 13.865 15.2848 13.8425 15.3248 13.8225C15.3898 13.7925 15.4673 13.7675 15.5573 13.7475C15.6473 13.7225 15.7373 13.705 15.8273 13.695C15.9223 13.685 16.0123 13.6825 16.0973 13.6875C16.1823 13.6875 16.2523 13.695 16.3073 13.71C16.3873 13.735 16.4498 13.7725 16.4948 13.8225C16.5448 13.8725 16.5648 13.9325 16.5548 14.0025ZM16.3823 16.5C16.4173 16.58 16.4348 16.6675 16.4348 16.7625C16.4398 16.8525 16.4148 16.915 16.3598 16.95C16.2898 16.995 16.2148 16.9925 16.1348 16.9425C16.0548 16.8925 15.9948 16.825 15.9548 16.74C15.8998 16.635 15.8573 16.5075 15.8273 16.3575C15.7973 16.2025 15.7748 16.05 15.7598 15.9C15.7448 15.75 15.7348 15.61 15.7298 15.48C15.7298 15.35 15.7298 15.2525 15.7298 15.1875C15.7348 15.1175 15.7548 15.0525 15.7898 14.9925C15.8248 14.9325 15.8698 14.8975 15.9248 14.8875C16.0148 14.8925 16.0873 14.935 16.1423 15.015C16.1973 15.09 16.2223 15.185 16.2173 15.3C16.2173 15.39 16.2198 15.49 16.2248 15.6C16.2298 15.71 16.2398 15.82 16.2548 15.93C16.2698 16.04 16.2873 16.1475 16.3073 16.2525C16.3273 16.3525 16.3523 16.435 16.3823 16.5ZM17.8237 14.0475C17.7987 14.2225 17.7762 14.4175 17.7562 14.6325C17.7362 14.8425 17.7162 15.0575 17.6962 15.2775C17.6762 15.4925 17.6562 15.7025 17.6362 15.9075C17.6212 16.1125 17.6087 16.2925 17.5987 16.4475C17.7687 16.4175 17.9562 16.3825 18.1612 16.3425C18.3712 16.3025 18.5837 16.2625 18.7987 16.2225C19.0137 16.1775 19.2237 16.14 19.4287 16.11C19.6387 16.075 19.8287 16.05 19.9987 16.035C20.0137 16.035 20.0312 16.04 20.0512 16.05C20.0912 16.07 20.1112 16.1025 20.1112 16.1475C20.1112 16.2125 20.0987 16.2625 20.0737 16.2975C20.0487 16.3275 20.0187 16.3525 19.9837 16.3725C19.9487 16.3875 19.9112 16.4025 19.8712 16.4175C19.8362 16.4325 19.8037 16.455 19.7737 16.485C19.6187 16.525 19.4487 16.5675 19.2637 16.6125C19.0787 16.6575 18.8887 16.7025 18.6937 16.7475C18.4987 16.7925 18.3037 16.8375 18.1087 16.8825C17.9137 16.9275 17.7312 16.9725 17.5612 17.0175C17.4062 17.0575 17.2887 17.03 17.2087 16.935C17.1287 16.84 17.0962 16.685 17.1112 16.47C17.1362 16.065 17.1662 15.66 17.2012 15.255C17.2362 14.845 17.2787 14.4375 17.3287 14.0325C17.3387 13.9475 17.3662 13.8775 17.4112 13.8225C17.4612 13.7675 17.5212 13.735 17.5912 13.725C17.7062 13.71 17.7737 13.74 17.7937 13.815C17.8187 13.885 17.8287 13.9625 17.8237 14.0475ZM22.1248 14.445C22.2748 14.5 22.3998 14.5825 22.4998 14.6925C22.6048 14.8025 22.6848 14.9275 22.7398 15.0675C22.7948 15.2025 22.8248 15.3425 22.8298 15.4875C22.8398 15.6325 22.8248 15.7675 22.7848 15.8925C22.7298 16.0325 22.6598 16.17 22.5748 16.305C22.4898 16.44 22.3923 16.56 22.2823 16.665C22.1723 16.77 22.0473 16.855 21.9073 16.92C21.7673 16.985 21.6123 17.0175 21.4423 17.0175C21.2373 17.0175 21.0648 16.97 20.9248 16.875C20.7848 16.78 20.6748 16.6575 20.5948 16.5075C20.5148 16.3575 20.4623 16.1875 20.4373 15.9975C20.4173 15.8075 20.4223 15.6175 20.4523 15.4275C20.4723 15.2875 20.5048 15.1525 20.5498 15.0225C20.5998 14.8875 20.6623 14.77 20.7373 14.67C20.8123 14.565 20.8973 14.48 20.9923 14.415C21.0923 14.35 21.2048 14.3175 21.3298 14.3175C21.3998 14.3175 21.4873 14.3325 21.5923 14.3625C21.6973 14.3875 21.7948 14.425 21.8848 14.475C21.9498 14.415 22.0298 14.405 22.1248 14.445ZM21.8398 14.9925C21.7848 14.9575 21.7198 14.9125 21.6448 14.8575C21.5748 14.7975 21.5123 14.7675 21.4573 14.7675C21.3973 14.7675 21.3373 14.795 21.2773 14.85C21.2223 14.905 21.1723 14.97 21.1273 15.045C21.0873 15.115 21.0523 15.1875 21.0223 15.2625C20.9923 15.3375 20.9723 15.3975 20.9623 15.4425C20.9473 15.5175 20.9373 15.6075 20.9323 15.7125C20.9273 15.8175 20.9348 15.9225 20.9548 16.0275C20.9748 16.1275 21.0123 16.22 21.0673 16.305C21.1273 16.385 21.2148 16.4425 21.3298 16.4775C21.3998 16.4975 21.4823 16.4975 21.5773 16.4775C21.6723 16.4525 21.7648 16.41 21.8548 16.35C21.9498 16.29 22.0373 16.21 22.1173 16.11C22.2023 16.01 22.2673 15.895 22.3123 15.765C22.3623 15.62 22.3623 15.47 22.3123 15.315C22.2673 15.155 22.1723 15.04 22.0273 14.97C21.9923 14.995 21.9573 15.0075 21.9223 15.0075C21.8873 15.0075 21.8598 15.0025 21.8398 14.9925ZM24.797 14.9925C24.837 15.0475 24.8745 15.1175 24.9095 15.2025C24.9495 15.2825 24.9795 15.365 24.9995 15.45C25.0295 15.585 25.062 15.7325 25.097 15.8925C25.137 16.0475 25.1745 16.21 25.2095 16.38C25.2495 16.55 25.2845 16.7225 25.3145 16.8975C25.3495 17.0725 25.3795 17.24 25.4045 17.4C25.4345 17.62 25.417 17.83 25.352 18.03C25.292 18.235 25.1895 18.4175 25.0445 18.5775C24.8995 18.7375 24.7195 18.865 24.5045 18.96C24.2895 19.055 24.047 19.1075 23.777 19.1175C23.717 19.1125 23.6545 19.0825 23.5895 19.0275C23.5245 18.9775 23.492 18.925 23.492 18.87C23.487 18.815 23.512 18.77 23.567 18.735C23.627 18.705 23.687 18.685 23.747 18.675C23.852 18.665 23.9595 18.6425 24.0695 18.6075C24.1845 18.5775 24.292 18.5325 24.392 18.4725C24.492 18.4125 24.582 18.34 24.662 18.255C24.747 18.17 24.812 18.07 24.857 17.955C24.892 17.865 24.9095 17.755 24.9095 17.625C24.9095 17.49 24.8995 17.3575 24.8795 17.2275C24.8645 17.0975 24.842 16.975 24.812 16.86C24.787 16.74 24.7645 16.65 24.7445 16.59C24.7095 16.625 24.6645 16.6625 24.6095 16.7025C24.5595 16.7425 24.502 16.78 24.437 16.815C24.372 16.85 24.2995 16.8775 24.2195 16.8975C24.1445 16.9175 24.067 16.925 23.987 16.92C23.902 16.915 23.822 16.885 23.747 16.83C23.677 16.775 23.6145 16.705 23.5595 16.62C23.5045 16.53 23.4595 16.4275 23.4245 16.3125C23.3945 16.1975 23.3795 16.0775 23.3795 15.9525C23.3895 15.6525 23.4645 15.3875 23.6045 15.1575C23.7495 14.9225 23.9795 14.74 24.2945 14.61C24.3195 14.605 24.352 14.6 24.392 14.595C24.437 14.59 24.482 14.59 24.527 14.595C24.572 14.595 24.6145 14.6 24.6545 14.61C24.6995 14.62 24.737 14.635 24.767 14.655C24.822 14.695 24.8495 14.7525 24.8495 14.8275C24.8495 14.9025 24.832 14.9575 24.797 14.9925ZM23.852 16.02C23.852 16.075 23.857 16.1375 23.867 16.2075C23.877 16.2725 23.9095 16.32 23.9645 16.35C24.0245 16.385 24.097 16.39 24.182 16.365C24.272 16.34 24.3545 16.2975 24.4295 16.2375C24.4995 16.1825 24.5445 16.1225 24.5645 16.0575C24.5895 15.9875 24.5895 15.895 24.5645 15.78C24.5395 15.665 24.512 15.545 24.482 15.42C24.452 15.295 24.432 15.1825 24.422 15.0825C24.362 15.1125 24.297 15.155 24.227 15.21C24.162 15.265 24.102 15.335 24.047 15.42C23.992 15.5 23.9445 15.59 23.9045 15.69C23.8695 15.79 23.852 15.9 23.852 16.02Z" fill="white"/>
<path d="M32 16C32 24.8366 24.8366 32 16 32C7.16344 32 0 24.8366 0 16C0 7.16344 7.16344 0 16 0C24.8366 0 32 7.16344 32 16ZM0.8 16C0.8 24.3947 7.60527 31.2 16 31.2C24.3947 31.2 31.2 24.3947 31.2 16C31.2 7.60527 24.3947 0.8 16 0.8C7.60527 0.8 0.8 7.60527 0.8 16Z" fill="white"/>
</svg>
